<svg id="Capa_1" data-name="Capa 1" xmlns="http://www.w3.org/2000/svg" viewBox="0 0 300 100"><defs><style>.cls-1{fill:#fff;}</style></defs><path class="cls-1" d="M24.51,48.84a28.66,28.66,0,0,1,2-10.83A27,27,0,0,1,40.78,23.19a27.26,27.26,0,0,1,21.34,0,26.37,26.37,0,0,1,8.49,5.94A26.94,26.94,0,0,1,76.22,38a29.09,29.09,0,0,1,2,10.83V74.37a3.77,3.77,0,0,1-3.61,3.92H74.3a4,4,0,0,1-2.82-1.1,3.7,3.7,0,0,1-1.15-2.82V49.08A21.68,21.68,0,0,0,69,41.27a19.65,19.65,0,0,0-4-6.38A18.31,18.31,0,0,0,51.44,29a18.52,18.52,0,0,0-7.59,1.55,18.88,18.88,0,0,0-10,10.53,21.27,21.27,0,0,0-1.42,7.81V74.37a3.89,3.89,0,0,1-1.06,2.82,3.67,3.67,0,0,1-2.77,1.1,4.08,4.08,0,0,1-2.83-1.1,3.59,3.59,0,0,1-1.24-2.82Z"/><path class="cls-1" d="M100.77,50.09a20.15,20.15,0,0,0,1.66,8.1,21.65,21.65,0,0,0,4.51,6.71,21,21,0,0,0,6.68,4.54,20.43,20.43,0,0,0,8.23,1.67,20.9,20.9,0,0,0,15-6.21,21.59,21.59,0,0,0,4.45-6.71,20.32,20.32,0,0,0,1.63-8.1,20.75,20.75,0,0,0-1.63-8.19A20.83,20.83,0,0,0,121.84,29a20.43,20.43,0,0,0-8.23,1.67A21.13,21.13,0,0,0,102.43,41.9,20.4,20.4,0,0,0,100.77,50.09Z"/><path class="cls-1" d="M161.29,26.76a3.86,3.86,0,0,1,.69-4.43,3.73,3.73,0,0,1,2.93-1.21,3.65,3.65,0,0,1,2.08.62,4.24,4.24,0,0,1,1.49,1.81l17,41.68,17-41.68A3.74,3.74,0,0,1,204,21.74a3.85,3.85,0,0,1,2.11-.62A3.8,3.8,0,0,1,209,22.33,3.87,3.87,0,0,1,210.1,25a4.7,4.7,0,0,1-.36,1.73l-20.6,49.51A7.61,7.61,0,0,1,187.71,78a3.26,3.26,0,0,1-2.25.69,3.66,3.66,0,0,1-2.17-.69,4.12,4.12,0,0,1-1.45-1.75Z"/><path class="cls-1" d="M246.87,79a27.74,27.74,0,0,1-11.22-2.28,28.89,28.89,0,0,1-9.08-6.21,29.65,29.65,0,0,1-6.12-9.17,28.26,28.26,0,0,1-2.25-11.25,28.69,28.69,0,0,1,2.25-11.34,29.71,29.71,0,0,1,6.11-9.23,28.5,28.5,0,0,1,9.07-6.24,28.62,28.62,0,0,1,39.86,26.81v24.4a4,4,0,0,1-3.9,4.1h-.17a3.52,3.52,0,0,1-2.8-1.19,4.28,4.28,0,0,1-1-2.91l-.06-4.27a29,29,0,0,1-9.17,6.44A27.85,27.85,0,0,1,246.87,79Zm0-7.89a20.39,20.39,0,0,0,14.84-6.21,21.71,21.71,0,0,0,4.34-23,20.77,20.77,0,0,0-4.34-6.71A20.55,20.55,0,0,0,246.84,29a20.15,20.15,0,0,0-8.17,1.67,20.7,20.7,0,0,0-11,11.22,21.13,21.13,0,0,0-1.61,8.19,20.83,20.83,0,0,0,1.61,8.1,21.28,21.28,0,0,0,4.4,6.71,20.47,20.47,0,0,0,6.57,4.54,20.1,20.1,0,0,0,8.2,1.68Z"/></svg>