<svg id="Capa_1" data-name="Capa 1" xmlns="http://www.w3.org/2000/svg" viewBox="0 0 300 100"><path d="M24.51,48.84a28.55,28.55,0,0,1,2-10.83A26.92,26.92,0,0,1,40.78,23.19a27.26,27.26,0,0,1,21.34,0,26.32,26.32,0,0,1,8.49,5.94A27,27,0,0,1,76.22,38a28.92,28.92,0,0,1,2,10.83V74.37a3.77,3.77,0,0,1-3.92,3.92,3.94,3.94,0,0,1-2.82-1.1,3.71,3.71,0,0,1-1.15-2.82V49.08A21.73,21.73,0,0,0,69,41.27,19.53,19.53,0,0,0,65,34.89,18.3,18.3,0,0,0,51.44,29a18.5,18.5,0,0,0-7.59,1.55,18.88,18.88,0,0,0-6,4.21,19.16,19.16,0,0,0-4,6.32,21.32,21.32,0,0,0-1.42,7.81V74.37a3.91,3.91,0,0,1-1.06,2.82,3.65,3.65,0,0,1-2.77,1.1,4.1,4.1,0,0,1-2.83-1.1,3.58,3.58,0,0,1-1.24-2.82Z"/><path d="M100.77,50.09a20.07,20.07,0,0,0,1.66,8.1,21.7,21.7,0,0,0,4.51,6.71,21,21,0,0,0,6.68,4.54,20.45,20.45,0,0,0,8.23,1.67,20.8,20.8,0,0,0,8.31-1.67,20.6,20.6,0,0,0,6.68-4.54,21.54,21.54,0,0,0,4.45-6.71,20.39,20.39,0,0,0,1.63-8.1,20.75,20.75,0,0,0-1.63-8.19,21.09,21.09,0,0,0-4.45-6.71,21,21,0,0,0-15-6.18,20.45,20.45,0,0,0-8.23,1.67A21.09,21.09,0,0,0,102.43,41.9,20.43,20.43,0,0,0,100.77,50.09Z"/><path d="M161.29,26.76a3.86,3.86,0,0,1,.69-4.43,3.75,3.75,0,0,1,2.93-1.21,3.65,3.65,0,0,1,2.08.62,4.21,4.21,0,0,1,1.49,1.81l17,41.68,17-41.68A3.7,3.7,0,0,1,204,21.74a3.84,3.84,0,0,1,2.11-.62A3.78,3.78,0,0,1,209,22.33,3.89,3.89,0,0,1,210.1,25a4.63,4.63,0,0,1-.36,1.73l-20.6,49.51A7.54,7.54,0,0,1,187.71,78a3.26,3.26,0,0,1-2.25.69,3.66,3.66,0,0,1-2.17-.69,4.11,4.11,0,0,1-1.45-1.75Z"/><path d="M246.87,79a27.72,27.72,0,0,1-11.22-2.28,28.8,28.8,0,0,1-9.08-6.21,29.53,29.53,0,0,1-6.12-9.17,28.25,28.25,0,0,1-2.25-11.25,28.62,28.62,0,0,1,2.25-11.34,29.78,29.78,0,0,1,6.11-9.23,28.51,28.51,0,0,1,9.07-6.24,28.85,28.85,0,0,1,22.48,0,29.05,29.05,0,0,1,17.38,26.81v24.4a4,4,0,0,1-4.07,4.1,3.53,3.53,0,0,1-2.8-1.19,4.31,4.31,0,0,1-1-2.91l-.06-4.27a28.93,28.93,0,0,1-9.17,6.44A27.9,27.9,0,0,1,246.87,79Zm0-7.89a20.44,20.44,0,0,0,8.27-1.67,20.23,20.23,0,0,0,6.57-4.54,21.72,21.72,0,0,0,4.34-23,20.8,20.8,0,0,0-4.34-6.71A20.53,20.53,0,0,0,246.84,29a20,20,0,0,0-8.17,1.67,20.7,20.7,0,0,0-11,11.22,21.1,21.1,0,0,0-1.61,8.19,20.73,20.73,0,0,0,1.61,8.1,21.23,21.23,0,0,0,4.4,6.71,20.45,20.45,0,0,0,6.57,4.54A20,20,0,0,0,246.84,71.11Z"/></svg>