<?xml version="1.0" encoding="utf-8"?>
<!-- Generator: Adobe Illustrator 25.0.0, SVG Export Plug-In . SVG Version: 6.00 Build 0)  -->
<svg version="1.1" id="Layer_1" xmlns="http://www.w3.org/2000/svg" xmlns:xlink="http://www.w3.org/1999/xlink" x="0px" y="0px"
	 viewBox="0 0 512 512" style="enable-background:new 0 0 512 512;" xml:space="preserve">
<style type="text/css">
	.st0{fill:#282828;stroke:#282828;stroke-width:16;stroke-miterlimit:10;}
</style>
<g>
	<g>
		<path class="st0" d="M511.7,411.2c-1-14.8-8.1-28.5-19.8-37.5l-68.3-53.3c-18.8-14.7-45.1-14.6-63.7,0.2l-15.3,12.1
			c-12.1,9.5-29.3,8.5-40.2-2.3L182.3,207.8c-10.9-10.9-11.8-28.3-2.3-40.3l12.1-15.3c14.7-18.7,14.8-45,0.2-63.8L139,19.9
			c-17.5-22.5-49.9-26.5-72.4-9c-1.7,1.4-3.4,2.8-4.9,4.4L18,59c-18.7,18.8-64,95.6,137.7,297.7C284,485,361.9,512,404.8,512
			c25.5,0,40.3-9.4,48.2-17.3l43.6-43.7C507.1,440.4,512.5,426,511.7,411.2z M484,433.2c-0.7,1-1.6,1.9-2.5,2.7l-43.6,43.7
			c-5,5-14.8,11.1-33.1,11.1c-31.8,0-104.4-19.3-233.9-149.1C21.6,191.9,3.3,103.9,33.2,73.9l43.6-43.7c5.7-5.7,13.3-8.9,21.4-8.9
			c0.6,0,1.3,0,1.9,0.1c8.6,0.5,16.7,4.8,22,11.6l53.2,68.5c8.6,11.1,8.5,26.6-0.1,37.5l-12.1,15.1c-16.2,20.6-14.5,50,4.1,68.6
			l122.1,122.5c18.5,18.6,48,20.3,68.5,4.1l15.3-12.1c10.9-8.6,26.3-8.7,37.3-0.1l68.3,53.3C492,400.8,494.3,419.9,484,433.2z"/>
	</g>
</g>
</svg>
